<?xml version="1.0" encoding="UTF-8" standalone="no"?>
<!-- Created with Inkscape (http://www.inkscape.org/) -->

<svg
   width="125.31526mm"
   height="158.70955mm"
   viewBox="0 0 125.31526 158.70955"
   version="1.1"
   id="svg21"
   xml:space="preserve"
   xmlns="http://www.w3.org/2000/svg"
   xmlns:svg="http://www.w3.org/2000/svg"><defs
     id="defs18"><rect
       x="253.47925"
       y="312.94714"
       width="126.44982"
       height="143.02017"
       id="rect330" /></defs><g
     id="layer1"
     transform="translate(-43.296876,-83.488816)"><path
       style="fill:#519ccb;fill-opacity:1;stroke-width:0.352778"
       d="m 66.898205,198.73417 c -0.02675,-0.92208 1.067788,-4.37745 3.150472,-9.94574 3.850507,-10.29481 3.850161,-7.98431 0.0028,-18.46064 -5.266125,-14.33969 -4.971312,-14.64859 10.442284,-10.94117 9.827491,2.36379 43.835715,10.51416 60.971455,14.61236 10.94701,2.61808 11.57677,2.92389 11.57677,5.62145 0,3.10724 0.84303,2.75607 -16.37972,6.82298 -7.04129,1.66271 -16.97839,4.0107 -22.08244,5.21778 -5.10405,1.20707 -15.093806,3.56517 -22.199465,5.2402 -7.10566,1.67504 -14.966891,3.52953 -17.46942,4.12109 -5.91265,1.39764 -7.922467,0.82368 -8.01275,-2.28831 z m 39.932905,-14.79169 c 3.61199,1.48312 7.51849,-2.66548 5.90224,-6.26802 -1.58937,-3.5426 -6.34986,-3.78026 -8.31465,-0.41508 -1.50365,2.57537 -0.4443,5.51011 2.41241,6.6831 z"
       id="path390" /><path
       style="fill:#a8cde4;stroke-width:0.352778"
       d="m 57.496506,219.30271 c -24.47496,-29.04485 -16.489162,-73.95886 16.668834,-93.7494 43.47874,-25.950536 98.96906,9.24189 94.15387,59.71317 -5.30634,55.61933 -74.681182,76.92595 -110.822704,34.03623 z m 13.51105,-8.27258 c 5.335007,-5.05915 5.949773,-5.35498 7.632143,-3.67261 1.576084,1.57608 1.091928,2.5323 -3.767302,7.44041 -5.377434,5.4316 -5.314806,4.8663 -0.901774,8.1345 7.66047,5.67319 17.666985,9.49266 26.703247,10.1926 2.60417,0.20171 2.48449,0.51434 2.55266,-6.66862 0.0637,-6.71042 0.31993,-7.53698 2.45315,-7.9128 2.33112,-0.41068 2.94871,1.20625 3.01462,7.89264 0.0683,6.92766 0.0847,6.96117 3.22798,6.59558 9.6086,-1.11756 18.4137,-4.52645 25.6469,-9.92917 4.76142,-3.55647 4.78282,-2.92096 -0.26845,-7.97222 -5.35458,-5.35458 -5.98438,-6.81393 -3.56563,-8.26213 1.6059,-0.96151 2.51196,-0.43495 6.91743,4.02017 5.36128,5.42167 4.79245,5.23223 7.2092,2.40109 15.6462,-18.32903 15.98479,-46.22881 0.80874,-66.64191 -2.53236,-3.40622 -2.21425,-3.49449 -7.8883,2.1886 -4.99083,4.99932 -5.92247,5.48148 -7.51258,3.89137 -1.7011,-1.7011 -1.41118,-2.28238 3.84516,-7.70928 5.59099,-5.77239 5.43268,-5.17055 2.06763,-7.86043 -7.12628,-5.69646 -16.52062,-9.70325 -25.87675,-11.03671 -4.73439,-0.67476 -4.5624,-0.92898 -4.60045,6.80016 -0.0351,7.13081 -0.45183,8.34734 -2.85941,8.34734 -2.24327,0 -2.55889,-1.00792 -2.61931,-8.36446 -0.0648,-7.88796 0.2097,-7.50282 -4.834539,-6.7839 -8.954364,1.2762 -19.565745,5.83787 -25.858681,11.11626 -3.168666,2.65781 -3.272999,2.29022 2.193037,7.72663 5.084719,5.05714 5.526357,5.93371 3.839504,7.62056 -1.731782,1.73178 -2.432999,1.37869 -7.677935,-3.86625 -5.620678,-5.62068 -5.095198,-5.52889 -8.160673,-1.42548 -13.531022,18.11249 -14.369757,42.56586 -2.106881,61.42631 5.07627,7.80737 4.684059,7.72008 10.387264,2.31175 z"
       id="path251" /><text
       xml:space="preserve"
       transform="scale(0.26458333)"
       id="text328"
       style="white-space:pre;shape-inside:url(#rect330);display:inline;fill:#000000" /><text
       xml:space="preserve"
       style="font-size:41.2297px;fill:#519ccb;fill-opacity:1;stroke-width:3.43579"
       x="90.369682"
       y="112.061"
       id="text336"><tspan
         id="tspan334"
         style="font-style:normal;font-variant:normal;font-weight:bold;font-stretch:normal;font-family:Ubuntu;-inkscape-font-specification:'Ubuntu Bold';fill:#519ccb;fill-opacity:1;stroke-width:3.43579"
         x="90.369682"
         y="112.061">N</tspan></text></g></svg>
