<?xml version="1.0" encoding="UTF-8" standalone="no"?>
<!-- Created with Inkscape (http://www.inkscape.org/) -->

<svg
   width="125.31526mm"
   height="158.70955mm"
   viewBox="0 0 125.31526 158.70955"
   version="1.1"
   id="svg21"
   xml:space="preserve"
   xmlns="http://www.w3.org/2000/svg"
   xmlns:svg="http://www.w3.org/2000/svg"><defs
     id="defs18"><rect
       x="253.47925"
       y="312.94714"
       width="126.44982"
       height="143.02017"
       id="rect330" /></defs><g
     id="layer1"
     transform="translate(-43.296876,-83.488816)"><path
       style="fill:#519ccb;fill-opacity:1;stroke-width:0.352778"
       d="m 91.84909,220.75447 c -0.67092,-0.63309 -2.34028,-3.85036 -4.80498,-9.26042 -4.55681,-10.00225 -2.92328,-8.36823 -13.05165,-13.05563 -13.863405,-6.41598 -13.873367,-6.84287 -0.35277,-15.12039 8.62054,-5.27763 38.43117,-23.56189 53.44583,-32.78083 9.59197,-5.88944 10.25352,-6.11851 12.16098,-4.21105 2.19715,2.19715 2.54495,1.35273 -6.75764,16.40679 -3.80323,6.15466 -9.16954,14.84153 -11.92511,19.30417 -2.75558,4.46264 -8.15198,13.19389 -11.99201,19.40278 -3.84003,6.20889 -8.08744,13.07894 -9.4387,15.26679 -3.19259,5.16916 -5.0196,6.18446 -7.28395,4.04779 z m 17.77753,-38.69613 c 3.60278,-1.50534 3.43159,-7.20115 -0.25865,-8.60567 -3.62885,-1.38115 -7.16307,1.81698 -6.17285,5.58583 0.75782,2.88431 3.58207,4.21041 6.4315,3.01984 z"
       id="path390" /><path
       style="fill:#a8cde4;stroke-width:0.352778"
       d="m 99.74524,241.94663 c -37.844221,-3.2314 -63.956407,-40.63721 -54.504189,-78.07748 12.39431,-49.09391 76.516699,-63.44669 108.800429,-24.35325 35.57665,43.08095 1.58729,107.20243 -54.29624,102.43073 z m 3.70416,-15.40335 c 0.19506,-7.34978 0.42058,-7.99367 2.79981,-7.99367 2.22892,0 2.56272,1.0185 2.59728,7.92505 0.0383,7.64314 -0.31714,7.19913 5.11431,6.38961 9.42832,-1.40522 19.20477,-5.78012 26.0893,-11.67479 1.98406,-1.69879 2.1205,-1.39311 -2.91042,-6.52043 -4.69996,-4.79001 -5.10322,-5.55567 -3.86055,-7.32983 1.35795,-1.93875 2.938,-1.23211 7.7126,3.44928 4.94689,4.8503 4.98218,4.86239 6.9463,2.38125 6.00407,-7.58454 9.81977,-16.22113 11.11411,-25.15608 0.85203,-5.88163 1.31654,-5.44739 -5.82703,-5.44739 -7.57252,0 -9.04977,-0.58658 -8.36349,-3.32092 0.45565,-1.81544 1.46867,-2.08378 7.73405,-2.04867 7.6247,0.0427 7.08852,0.31097 6.7955,-3.39985 -1.89704,-24.02412 -21.38575,-43.99166 -46.55108,-47.69481 -4.19921,-0.61792 -4.03669,-0.90527 -4.03029,7.12544 0.006,7.0641 -0.31183,8.06381 -2.56059,8.06381 -2.40572,0 -2.61174,-0.61603 -2.73234,-8.17022 -0.12827,-8.03513 0.18535,-7.49762 -4.09613,-7.0202 -9.06705,1.01103 -18.54308,4.82061 -26.10176,10.49349 -3.824842,2.87059 -3.882991,2.56922 1.55543,8.06145 5.01742,5.06707 5.58297,6.22195 3.88055,7.92437 -1.58623,1.58623 -2.52211,1.0967 -7.766696,-4.06244 -5.623429,-5.53183 -5.157007,-5.45357 -8.215474,-1.3784 -5.429282,7.2341 -9.707072,17.96307 -10.424467,26.14523 -0.36123,4.11994 -0.69493,3.93379 7.014263,3.91284 7.171379,-0.0195 8.103489,0.28804 8.103489,2.67361 0,2.44911 -0.745511,2.69527 -8.162971,2.69527 -7.948838,0 -7.512367,-0.30667 -6.778434,4.7625 3.239586,22.37534 19.937655,40.25956 41.94517,44.92475 9.11011,1.93118 8.77105,2.14679 8.97956,-5.71025 z"
       id="path251" /><text
       xml:space="preserve"
       transform="scale(0.26458333)"
       id="text328"
       style="white-space:pre;shape-inside:url(#rect330);fill:#000000" /><text
       xml:space="preserve"
       style="font-size:41.2297px;fill:#519ccb;fill-opacity:1;stroke-width:3.43579"
       x="90.369682"
       y="112.061"
       id="text336"><tspan
         id="tspan334"
         style="font-style:normal;font-variant:normal;font-weight:bold;font-stretch:normal;font-family:Ubuntu;-inkscape-font-specification:'Ubuntu Bold';fill:#519ccb;fill-opacity:1;stroke-width:3.43579"
         x="90.369682"
         y="112.061">N</tspan></text></g></svg>
