<?xml version="1.0" encoding="UTF-8" standalone="no"?>
<!-- Created with Inkscape (http://www.inkscape.org/) -->

<svg
   width="125.31526mm"
   height="158.70955mm"
   viewBox="0 0 125.31526 158.70955"
   version="1.1"
   id="svg21"
   xml:space="preserve"
   xmlns="http://www.w3.org/2000/svg"
   xmlns:svg="http://www.w3.org/2000/svg"><defs
     id="defs18"><rect
       x="253.47925"
       y="312.94714"
       width="126.44982"
       height="143.02017"
       id="rect330" /></defs><g
     id="layer1"
     transform="translate(-43.296876,-83.488816)"><path
       style="fill:#519ccb;fill-opacity:1;stroke-width:0.352778"
       d="m 147.12071,193.58226 c -0.63306,0.67096 -3.85036,2.34029 -9.26042,4.80498 -10.00225,4.55681 -8.36822,2.92329 -13.05577,13.05153 -6.41598,13.86339 -6.84286,13.87336 -15.12038,0.35276 -5.27764,-8.62053 -23.561904,-38.43116 -32.780827,-53.44581 -5.889438,-9.59198 -6.11851,-10.25353 -4.211057,-12.16099 2.197162,-2.19716 1.352727,-2.54495 16.406797,6.75763 6.154655,3.80323 14.841537,9.16955 19.304167,11.92512 4.46264,2.75557 13.1939,8.15198 19.40278,11.99201 6.20888,3.84003 13.07893,8.08744 15.2668,9.4387 5.16915,3.19259 6.18446,5.01959 4.04778,7.28394 z m -38.69613,-17.77752 c -1.50534,-3.60279 -7.20116,-3.4316 -8.605678,0.25865 -1.381135,3.62884 1.816978,7.16307 5.585848,6.17284 2.88429,-0.75781 4.2104,-3.58206 3.01983,-6.43149 z"
       id="path390" /><path
       style="fill:#a8cde4;stroke-width:0.352778"
       d="m 168.31288,185.68613 c -3.2314,37.84422 -40.63722,63.9564 -78.077495,54.50418 C 41.141473,227.79599 26.788695,163.67361 65.882133,131.38988 108.96309,95.813221 173.08456,129.80259 168.31288,185.68613 Z m -15.40337,-3.70417 c -7.34977,-0.19506 -7.99365,-0.42058 -7.99365,-2.79981 -1e-5,-2.22891 1.01848,-2.56272 7.92503,-2.59728 7.64316,-0.0383 7.19914,0.31714 6.38963,-5.11431 -1.40522,-9.42833 -5.78012,-19.20477 -11.6748,-26.08931 -1.6988,-1.98405 -1.3931,-2.12049 -6.52042,2.91043 -4.79003,4.69995 -5.55569,5.10322 -7.32983,3.86056 -1.93876,-1.35797 -1.23212,-2.93801 3.44927,-7.71261 4.8503,-4.94689 4.8624,-4.98218 2.38126,-6.9463 -7.58454,-6.00407 -16.22115,-9.81977 -25.15609,-11.11412 -5.88164,-0.85202 -5.4474,-1.31652 -5.44738,5.82704 0,7.57252 -0.58658,9.04977 -3.32094,8.36349 -1.81542,-0.45566 -2.08378,-1.46867 -2.04866,-7.73405 0.0427,-7.6247 0.31096,-7.08852 -3.39986,-6.79551 -24.024105,1.89705 -43.991655,21.38576 -47.694807,46.55109 -0.617906,4.19921 -0.905267,4.03668 7.125444,4.03029 7.064108,-0.006 8.06381,0.31184 8.06381,2.56058 0,2.40572 -0.616034,2.61175 -8.170222,2.73236 -8.035119,0.12826 -7.497609,-0.18536 -7.020198,4.09613 1.011036,9.06703 4.820608,18.54306 10.4935,26.10175 2.870588,3.82484 2.569212,3.883 8.061459,-1.55544 5.067056,-5.01741 6.221938,-5.58297 7.924348,-3.88056 1.586252,1.58624 1.096708,2.52213 -4.062428,7.76671 -5.531802,5.62344 -5.453582,5.15702 -1.378413,8.21548 7.234106,5.42929 17.963072,9.70707 26.145231,10.42445 4.119946,0.36124 3.933786,0.69494 3.912846,-7.01425 -0.0195,-7.17138 0.28805,-8.1035 2.67361,-8.10349 2.4491,0 2.69528,0.74551 2.69526,8.16297 2e-5,7.94883 -0.30666,7.51236 4.76251,6.77845 22.37534,-3.2396 40.25956,-19.93767 44.92475,-41.94518 1.93118,-9.11011 2.14679,-8.77106 -5.71026,-8.97956 z"
       id="path251" /><text
       xml:space="preserve"
       transform="scale(0.26458333)"
       id="text328"
       style="white-space:pre;shape-inside:url(#rect330);display:inline;fill:#000000" /><text
       xml:space="preserve"
       style="font-size:41.2297px;fill:#519ccb;fill-opacity:1;stroke-width:3.43579"
       x="90.369682"
       y="112.061"
       id="text336"><tspan
         id="tspan334"
         style="font-style:normal;font-variant:normal;font-weight:bold;font-stretch:normal;font-family:Ubuntu;-inkscape-font-specification:'Ubuntu Bold';fill:#519ccb;fill-opacity:1;stroke-width:3.43579"
         x="90.369682"
         y="112.061">N</tspan></text></g></svg>
