<?xml version="1.0" encoding="UTF-8" standalone="no"?>
<!-- Created with Inkscape (http://www.inkscape.org/) -->

<svg
   width="125.31526mm"
   height="158.70955mm"
   viewBox="0 0 125.31526 158.70955"
   version="1.1"
   id="svg21"
   xml:space="preserve"
   xmlns="http://www.w3.org/2000/svg"
   xmlns:svg="http://www.w3.org/2000/svg"><defs
     id="defs18"><rect
       x="253.47925"
       y="312.94714"
       width="126.44982"
       height="143.02017"
       id="rect330" /></defs><g
     id="layer1"
     transform="translate(-43.296876,-83.488816)"><path
       style="fill:#519ccb;fill-opacity:1;stroke-width:0.352778"
       d="m 144.89939,160.33095 c 0.0268,0.92208 -1.06778,4.37745 -3.15047,9.94574 -3.85051,10.29481 -3.85015,7.98431 -0.003,18.46065 5.26612,14.33968 4.97132,14.64858 -10.44228,10.94116 -9.82749,-2.36378 -43.83572,-10.51415 -60.971446,-14.61235 -10.947013,-2.61809 -11.57678,-2.9239 -11.576784,-5.62145 6e-6,-3.10725 -0.843026,-2.75607 16.379724,-6.82299 7.041287,-1.66271 16.978399,-4.0107 22.082442,-5.21778 5.104044,-1.20707 15.093814,-3.56517 22.199464,-5.2402 7.10566,-1.67503 14.96689,-3.52952 17.46943,-4.12109 5.91264,-1.39764 7.92246,-0.82368 8.01274,2.28831 z m -39.9329,14.79169 c -3.61199,-1.48312 -7.518496,2.66548 -5.90224,6.26803 1.58937,3.54259 6.34985,3.78026 8.31465,0.41507 1.50365,-2.57536 0.4443,-5.51011 -2.41241,-6.6831 z"
       id="path390" /><path
       style="fill:#a8cde4;stroke-width:0.352778"
       d="m 154.30111,139.76242 c 24.47496,29.04485 16.48915,73.95886 -16.66885,93.7494 -43.478746,25.95053 -98.969059,-9.24189 -94.153868,-59.71317 5.30634,-55.61934 74.681178,-76.925954 110.822718,-34.03623 z m -13.51107,8.27258 c -5.335,5.05914 -5.94976,5.35497 -7.63213,3.6726 -1.57608,-1.57607 -1.09194,-2.53229 3.76729,-7.4404 5.37744,-5.43161 5.31481,-4.86631 0.90178,-8.13451 -7.66047,-5.67319 -17.66698,-9.49266 -26.70325,-10.1926 -2.60417,-0.2017 -2.48449,-0.51434 -2.55265,6.66862 -0.0637,6.71043 -0.31994,7.53699 -2.45315,7.9128 -2.33113,0.41068 -2.94872,-1.20625 -3.01463,-7.89264 -0.0683,-6.92766 -0.0847,-6.96117 -3.227976,-6.59558 -9.608598,1.11756 -18.413702,4.52646 -25.646902,9.92917 -4.761419,3.55648 -4.782821,2.92097 0.268451,7.97222 5.35458,5.35458 5.98438,6.81393 3.565629,8.26214 -1.605902,0.9615 -2.511961,0.43495 -6.917429,-4.02018 -5.361282,-5.42166 -4.792451,-5.23222 -7.209209,-2.40109 -15.646192,18.32903 -15.984782,46.22882 -0.80873,66.64192 2.53236,3.40621 2.214239,3.49448 7.88829,-2.18861 4.990838,-4.99932 5.922479,-5.48147 7.512579,-3.89137 1.7011,1.7011 1.411187,2.28239 -3.845148,7.70929 -5.590994,5.77238 -5.43268,5.17054 -2.06763,7.86043 7.126272,5.69645 16.52061,9.70324 25.87675,11.0367 4.734385,0.67476 4.562405,0.92899 4.600455,-6.80017 0.0351,-7.1308 0.45182,-8.34733 2.85939,-8.34733 2.24329,-1e-5 2.5589,1.00792 2.61932,8.36446 0.0648,7.88795 -0.2097,7.50283 4.83454,6.78391 8.95437,-1.2762 19.56574,-5.83788 25.85867,-11.11627 3.16868,-2.65781 3.273,-2.29022 -2.19303,-7.72663 -5.08472,-5.05714 -5.52635,-5.93372 -3.8395,-7.62056 1.73177,-1.73177 2.433,-1.37869 7.67793,3.86626 5.62068,5.62066 5.0952,5.52888 8.16069,1.42548 13.53101,-18.1125 14.36974,-42.56587 2.10687,-61.42632 -5.07627,-7.80737 -4.68406,-7.72008 -10.38727,-2.31174 z"
       id="path251" /><text
       xml:space="preserve"
       transform="scale(0.26458333)"
       id="text328"
       style="white-space:pre;shape-inside:url(#rect330);display:inline;fill:#000000" /><text
       xml:space="preserve"
       style="font-size:41.2297px;fill:#519ccb;fill-opacity:1;stroke-width:3.43579"
       x="90.369682"
       y="112.061"
       id="text336"><tspan
         id="tspan334"
         style="font-style:normal;font-variant:normal;font-weight:bold;font-stretch:normal;font-family:Ubuntu;-inkscape-font-specification:'Ubuntu Bold';fill:#519ccb;fill-opacity:1;stroke-width:3.43579"
         x="90.369682"
         y="112.061">N</tspan></text></g></svg>
