<?xml version="1.0" encoding="UTF-8" standalone="no"?>
<!-- Created with Inkscape (http://www.inkscape.org/) -->

<svg
   width="125.31526mm"
   height="158.70955mm"
   viewBox="0 0 125.31526 158.70955"
   version="1.1"
   id="svg21"
   xml:space="preserve"
   xmlns="http://www.w3.org/2000/svg"
   xmlns:svg="http://www.w3.org/2000/svg"><defs
     id="defs18"><rect
       x="253.47925"
       y="312.94714"
       width="126.44982"
       height="143.02017"
       id="rect330" /></defs><g
     id="layer1"
     transform="translate(-43.296876,-83.488816)"><path
       style="fill:#519ccb;fill-opacity:1;stroke-width:0.352778"
       d="m 86.697191,140.53197 c 0.922085,-0.0268 4.377454,1.06778 9.945741,3.15047 10.294808,3.85051 7.984308,3.85016 18.460648,0.003 14.33968,-5.26612 14.64858,-4.97131 10.94116,10.44228 -2.36378,9.82749 -10.51415,43.83572 -14.61235,60.97145 -2.61809,10.94701 -2.9239,11.57678 -5.62145,11.57678 -3.10724,0 -2.75607,0.84303 -6.82299,-16.37972 -1.662705,-7.04129 -4.010695,-16.9784 -5.217776,-22.08244 -1.207069,-5.10405 -3.565167,-15.09381 -5.240199,-22.19947 -1.675039,-7.10566 -3.529527,-14.96689 -4.121087,-17.46942 -1.397643,-5.91265 -0.82368,-7.92247 2.288303,-8.01275 z m 14.791689,39.9329 c -1.48312,3.61199 2.66548,7.5185 6.26803,5.90224 3.5426,-1.58937 3.78026,-6.34985 0.41508,-8.31465 -2.57537,-1.50365 -5.51012,-0.4443 -6.68311,2.41241 z"
       id="path390" /><path
       style="fill:#a8cde4;stroke-width:0.352778"
       d="m 66.128658,131.13026 c 29.044849,-24.47496 73.958862,-16.48916 93.749402,16.66884 25.95053,43.47875 -9.24189,98.96906 -59.71317,94.15387 C 44.545551,236.64663 23.238936,167.27179 66.128658,131.13026 Z m 8.272579,13.51106 c 5.059149,5.335 5.354981,5.94977 3.672611,7.63214 -1.576082,1.57608 -2.532303,1.09193 -7.44041,-3.7673 -5.431599,-5.37744 -4.866301,-5.31481 -8.134501,-0.90178 -5.673196,7.66048 -9.49266,17.66699 -10.192604,26.70325 -0.201706,2.60417 -0.514338,2.48449 6.668625,2.55266 6.71042,0.0637 7.536976,0.31993 7.912796,2.45315 0.410684,2.33112 -1.20625,2.94871 -7.892642,3.01462 -6.927659,0.0683 -6.961168,0.0847 -6.595576,3.22798 1.117562,9.6086 4.52645,18.4137 9.929165,25.6469 3.556477,4.76142 2.920964,4.78282 7.972224,-0.26845 5.35458,-5.35458 6.813929,-5.98438 8.262133,-3.56563 0.961502,1.6059 0.434948,2.51196 -4.020171,6.91743 -5.421671,5.36128 -5.23223,4.79245 -2.401094,7.20921 18.329028,15.64619 46.228817,15.98478 66.641917,0.80873 3.40622,-2.53236 3.49448,-2.21424 -2.1886,-7.88829 -4.99933,-4.99084 -5.48148,-5.92248 -3.89138,-7.51258 1.70111,-1.7011 2.28239,-1.41119 7.70929,3.84515 5.77238,5.59099 5.17054,5.43268 7.86043,2.06763 5.69645,-7.12628 9.70324,-16.52061 11.0367,-25.87675 0.67476,-4.73439 0.92899,-4.5624 -6.80016,-4.60046 -7.13081,-0.0351 -8.34734,-0.45182 -8.34734,-2.85939 0,-2.24329 1.00792,-2.5589 8.36446,-2.61932 7.88796,-0.0648 7.50283,0.2097 6.78391,-4.83454 -1.2762,-8.95436 -5.83788,-19.56574 -11.11627,-25.85867 -2.65781,-3.16868 -2.29022,-3.273 -7.72663,2.19303 -5.05714,5.08472 -5.93371,5.52635 -7.62056,3.8395 -1.73177,-1.73177 -1.37869,-2.433 3.86626,-7.67793 5.62067,-5.62068 5.52888,-5.0952 1.42548,-8.16068 -18.1125,-13.53102 -42.565867,-14.36975 -61.426313,-2.10688 -7.807371,5.07627 -7.720079,4.68406 -2.31175,10.38727 z"
       id="path251" /><text
       xml:space="preserve"
       transform="scale(0.26458333)"
       id="text328"
       style="white-space:pre;shape-inside:url(#rect330);display:inline;fill:#000000" /><text
       xml:space="preserve"
       style="font-size:41.2297px;fill:#519ccb;fill-opacity:1;stroke-width:3.43579"
       x="90.369682"
       y="112.061"
       id="text336"><tspan
         id="tspan334"
         style="font-style:normal;font-variant:normal;font-weight:bold;font-stretch:normal;font-family:Ubuntu;-inkscape-font-specification:'Ubuntu Bold';fill:#519ccb;fill-opacity:1;stroke-width:3.43579"
         x="90.369682"
         y="112.061">N</tspan></text></g></svg>
