<?xml version="1.0" encoding="UTF-8" standalone="no"?>
<!-- Created with Inkscape (http://www.inkscape.org/) -->

<svg
   width="125.31526mm"
   height="158.70955mm"
   viewBox="0 0 125.31526 158.70955"
   version="1.1"
   id="svg21"
   xml:space="preserve"
   xmlns="http://www.w3.org/2000/svg"
   xmlns:svg="http://www.w3.org/2000/svg"><defs
     id="defs18"><rect
       x="253.47925"
       y="312.94714"
       width="126.44982"
       height="143.02017"
       id="rect330" /></defs><g
     id="layer1"
     transform="translate(-43.296876,-83.488816)"><path
       style="fill:#519ccb;fill-opacity:1;stroke-width:0.352778"
       d="m 64.676892,165.48286 c 0.633094,-0.67093 3.850365,-2.34029 9.260421,-4.80498 10.002249,-4.55681 8.368234,-2.92329 13.055623,-13.05167 6.41598,-13.8634 6.842869,-13.87336 15.120384,-0.35276 5.27764,8.62053 23.5619,38.43116 32.78083,53.44582 5.88944,9.59197 6.11851,10.25352 4.21105,12.16098 -2.19715,2.19715 -1.35272,2.54495 -16.40679,-6.75763 -6.15465,-3.80323 -14.84153,-9.16955 -19.30417,-11.92512 -4.462634,-2.75558 -13.193887,-8.15198 -19.402771,-11.99201 -6.208893,-3.84003 -13.078945,-8.08744 -15.266796,-9.4387 -5.169156,-3.19259 -6.18446,-5.0196 -4.047791,-7.28394 z m 38.696128,17.77752 c 1.50534,3.60279 7.20116,3.4316 8.60568,-0.25865 1.38114,-3.62885 -1.81698,-7.16307 -5.58584,-6.17285 -2.8843,0.75782 -4.21041,3.58207 -3.01984,6.4315 z"
       id="path390" /><path
       style="fill:#a8cde4;stroke-width:0.352778"
       d="m 43.484733,173.379 c 3.2314,-37.84422 40.637213,-63.95641 78.077487,-54.50419 49.09391,12.39432 63.44669,76.5167 24.35325,108.80043 C 102.83451,263.2519 38.713036,229.26253 43.484733,173.379 Z m 15.403353,3.70416 c 7.349778,0.19506 7.993667,0.42058 7.993667,2.79981 3e-6,2.22892 -1.018497,2.56272 -7.925049,2.59728 -7.643141,0.0383 -7.199129,-0.31714 -6.389611,5.11431 1.405219,9.42833 5.780121,19.20477 11.674791,26.08931 1.698795,1.98405 1.393106,2.12049 6.520429,-2.91043 4.790027,-4.69994 5.555675,-5.10322 7.329834,-3.86055 1.938745,1.35795 1.232105,2.938 -3.449281,7.7126 -4.8503,4.94689 -4.862399,4.98218 -2.381253,6.9463 7.584541,6.00407 16.221136,9.81977 25.15608,11.11412 5.881637,0.85202 5.447397,1.31653 5.447387,-5.82704 0,-7.57252 0.58658,-9.04977 3.32093,-8.36349 1.81543,0.45566 2.08378,1.46867 2.04867,7.73405 -0.0427,7.6247 -0.31097,7.08852 3.39985,6.79551 24.02411,-1.89705 43.99166,-21.38576 47.69481,-46.55109 0.61791,-4.19921 0.90527,-4.03668 -7.12544,-4.03029 -7.06411,0.006 -8.06381,-0.31183 -8.06381,-2.56058 0,-2.40572 0.61603,-2.61175 8.17022,-2.73235 8.03512,-0.12827 7.49761,0.18535 7.0202,-4.09613 -1.01104,-9.06704 -4.82061,-18.54307 -10.4935,-26.10176 -2.87059,-3.82484 -2.56921,-3.88299 -8.06145,1.55543 -5.06706,5.01743 -6.22195,5.58297 -7.92436,3.88056 -1.58624,-1.58624 -1.09671,-2.52212 4.06243,-7.7667 5.53181,-5.62345 5.45358,-5.15702 1.37841,-8.21548 -7.2341,-5.42928 -17.96307,-9.70707 -26.14523,-10.42446 -4.11995,-0.36123 -3.93379,-0.69493 -3.91285,7.01426 0.0195,7.17138 -0.28804,8.10349 -2.67361,8.10349 -2.4491,0 -2.69527,-0.74551 -2.69526,-8.16297 0,-7.94884 0.30666,-7.51237 -4.762505,-6.77844 -22.375342,3.23959 -40.259561,19.93766 -44.92475,41.94517 -1.93118,9.11011 -2.146791,8.77105 5.710251,8.97956 z"
       id="path251" /><text
       xml:space="preserve"
       transform="scale(0.26458333)"
       id="text328"
       style="white-space:pre;shape-inside:url(#rect330);display:inline;fill:#000000" /><text
       xml:space="preserve"
       style="font-size:41.2297px;fill:#519ccb;fill-opacity:1;stroke-width:3.43579"
       x="90.369682"
       y="112.061"
       id="text336"><tspan
         id="tspan334"
         style="font-style:normal;font-variant:normal;font-weight:bold;font-stretch:normal;font-family:Ubuntu;-inkscape-font-specification:'Ubuntu Bold';fill:#519ccb;fill-opacity:1;stroke-width:3.43579"
         x="90.369682"
         y="112.061">N</tspan></text></g></svg>
