<?xml version="1.0" encoding="UTF-8" standalone="no"?>
<!-- Created with Inkscape (http://www.inkscape.org/) -->

<svg
   width="125.31526mm"
   height="158.70955mm"
   viewBox="0 0 125.31526 158.70955"
   version="1.1"
   id="svg21"
   xml:space="preserve"
   inkscape:version="1.2.1 (8a69933317, 2022-10-28, custom)"
   sodipodi:docname="suroeste"
   xmlns:inkscape="http://www.inkscape.org/namespaces/inkscape"
   xmlns:sodipodi="http://sodipodi.sourceforge.net/DTD/sodipodi-0.dtd"
   xmlns="http://www.w3.org/2000/svg"
   xmlns:svg="http://www.w3.org/2000/svg"><sodipodi:namedview
     id="namedview23"
     pagecolor="#ffffff"
     bordercolor="#000000"
     borderopacity="0.25"
     inkscape:showpageshadow="2"
     inkscape:pageopacity="0"
     inkscape:pagecheckerboard="false"
     inkscape:deskcolor="#d1d1d1"
     inkscape:document-units="mm"
     showgrid="false"
     showguides="true"
     inkscape:zoom="1.1893044"
     inkscape:cx="252.24829"
     inkscape:cy="313.20829"
     inkscape:window-width="1680"
     inkscape:window-height="989"
     inkscape:window-x="1366"
     inkscape:window-y="30"
     inkscape:window-maximized="1"
     inkscape:current-layer="layer1"><sodipodi:guide
       position="62.414985,100.61998"
       orientation="1,0"
       id="guide1071"
       inkscape:locked="false" /></sodipodi:namedview><defs
     id="defs18"><rect
       x="253.47925"
       y="312.94714"
       width="126.44982"
       height="143.02017"
       id="rect330" /></defs><g
     inkscape:label="Capa 1"
     inkscape:groupmode="layer"
     id="layer1"
     transform="translate(-43.296876,-83.488816)"><path
       style="fill:#519ccb;fill-opacity:1;stroke-width:0.352778"
       d="m 119.9485,138.31065 c 0.67096,0.63306 2.34029,3.85036 4.80498,9.26042 4.55681,10.00225 2.92329,8.36823 13.05153,13.05577 13.8634,6.41598 13.87336,6.84286 0.35276,15.12038 -8.62053,5.27764 -38.431158,23.56191 -53.445814,32.78083 -9.591974,5.88944 -10.253529,6.11851 -12.160985,4.21106 -2.197151,-2.19716 -2.544948,-1.35273 6.757629,-16.4068 3.803233,-6.15465 9.169552,-14.84153 11.925118,-19.30417 2.755581,-4.46263 8.151981,-13.19389 11.992012,-19.40277 3.84003,-6.20889 8.08744,-13.07894 9.4387,-15.2668 3.19259,-5.16915 5.0196,-6.18446 7.28394,-4.04779 z m -17.77752,38.69613 c -3.602786,1.50534 -3.431602,7.20116 0.25865,8.60568 3.62885,1.38114 7.16307,-1.81697 6.17285,-5.58584 -0.75782,-2.8843 -3.58207,-4.21041 -6.4315,-3.01984 z"
       id="path390" /><path
       style="fill:#a8cde4;stroke-width:0.352778"
       d="m 112.05237,117.11849 c 37.84422,3.2314 63.95641,40.63722 54.50418,78.07749 C 154.16223,244.28989 90.039857,258.64267 57.756126,219.54923 22.179463,176.46827 56.168831,112.3468 112.05237,117.11849 Z m -3.70417,15.40336 c -0.19506,7.34977 -0.42058,7.99366 -2.79981,7.99366 -2.22891,0 -2.56272,-1.01849 -2.59728,-7.92504 -0.0383,-7.64315 0.31714,-7.19914 -5.114307,-6.38962 -9.428332,1.40522 -19.204772,5.78012 -26.089308,11.67479 -1.984054,1.6988 -2.120492,1.39311 2.910426,6.52043 4.699941,4.79003 5.103223,5.55568 3.860553,7.32983 -1.357953,1.93875 -2.938,1.23211 -7.712599,-3.44928 -4.94689,-4.8503 -4.982181,-4.8624 -6.946303,-2.38125 -6.00407,7.58454 -9.819768,16.22114 -11.114117,25.15608 -0.852023,5.88164 -1.316531,5.4474 5.827037,5.44739 7.572519,0 9.049771,0.58658 8.363491,3.32093 -0.455658,1.81543 -1.468669,2.08378 -7.734052,2.04867 -7.624698,-0.0427 -7.088519,-0.31097 -6.795511,3.39985 1.897053,24.02411 21.385764,43.99166 46.551093,47.69481 4.199207,0.61791 4.036677,0.90527 4.030287,-7.12544 -0.006,-7.06411 0.31184,-8.06381 2.56058,-8.06381 2.40572,0 2.61175,0.61603 2.73236,8.17022 0.12826,8.03512 -0.18536,7.49761 4.09613,7.0202 9.06703,-1.01104 18.54306,-4.82061 26.10175,-10.4935 3.82484,-2.87059 3.883,-2.56921 -1.55543,-8.06146 -5.01742,-5.06706 -5.58297,-6.22194 -3.88056,-7.92435 1.58624,-1.58625 2.52212,-1.09671 7.7667,4.06243 5.62345,5.5318 5.15702,5.45358 8.21549,1.37841 5.42928,-7.2341 9.70706,-17.96307 10.42445,-26.14523 0.36124,-4.11995 0.69493,-3.93379 -7.01426,-3.91285 -7.17138,0.0195 -8.10349,-0.28805 -8.10349,-2.67361 0,-2.44909 0.74551,-2.69527 8.16298,-2.69526 7.94883,-1e-5 7.51236,0.30666 6.77844,-4.76251 -3.2396,-22.37534 -19.93767,-40.25956 -41.94518,-44.92475 -9.11011,-1.93118 -8.77105,-2.14679 -8.97956,5.71026 z"
       id="path251" /><text
       xml:space="preserve"
       transform="scale(0.26458333)"
       id="text328"
       style="white-space:pre;shape-inside:url(#rect330);display:inline;fill:#000000" /><text
       xml:space="preserve"
       style="font-size:41.2297px;fill:#519ccb;fill-opacity:1;stroke-width:3.43579"
       x="90.369682"
       y="112.061"
       id="text336"><tspan
         sodipodi:role="line"
         id="tspan334"
         style="font-style:normal;font-variant:normal;font-weight:bold;font-stretch:normal;font-family:Ubuntu;-inkscape-font-specification:'Ubuntu Bold';fill:#519ccb;fill-opacity:1;stroke-width:3.43579"
         x="90.369682"
         y="112.061">N</tspan></text></g></svg>
